<?xml version="1.0" standalone="no"?>
<!DOCTYPE svg PUBLIC "-//W3C//DTD SVG 20010904//EN"
 "http://www.w3.org/TR/2001/REC-SVG-20010904/DTD/svg10.dtd">
<svg version="1.0" xmlns="http://www.w3.org/2000/svg"
 width="2560.000000pt" height="2560.000000pt" viewBox="0 0 2560.000000 2560.000000"
 preserveAspectRatio="xMidYMid meet">

<g transform="translate(0.000000,2560.000000) scale(0.100000,-0.100000)"
fill="#000000" stroke="none">
<path d="M8880 25588 c0 -7 -33 -29 -73 -48 -84 -40 -112 -62 -138 -110 -11
-19 -28 -48 -39 -65 -35 -54 -40 -75 -40 -175 0 -99 0 -100 46 -187 41 -78
169 -237 284 -355 32 -32 192 -241 239 -312 31 -46 97 -150 129 -201 7 -11 17
-31 22 -45 6 -14 14 -32 20 -40 33 -51 92 -195 134 -328 33 -104 45 -320 26
-468 -16 -120 -71 -262 -170 -439 -16 -27 -36 -65 -44 -84 -9 -19 -31 -53 -49
-75 -18 -23 -46 -61 -62 -86 -16 -25 -48 -68 -70 -97 -22 -28 -55 -72 -73 -96
-18 -25 -45 -58 -59 -73 -15 -16 -72 -84 -127 -150 -282 -339 -332 -399 -348
-415 -9 -10 -32 -40 -51 -67 -18 -27 -39 -55 -46 -63 -18 -21 -145 -190 -185
-247 -19 -27 -52 -82 -73 -121 -21 -39 -47 -86 -58 -105 -79 -135 -126 -223
-132 -245 -3 -14 -14 -42 -25 -61 -10 -19 -18 -41 -18 -48 0 -7 -9 -30 -20
-52 -11 -22 -20 -48 -20 -60 0 -11 -9 -46 -19 -77 -11 -32 -30 -110 -43 -173
-20 -101 -23 -145 -23 -355 0 -161 4 -253 12 -280 7 -22 17 -74 23 -115 6 -41
19 -102 29 -135 59 -190 73 -233 85 -260 8 -16 24 -55 36 -85 27 -65 122 -258
156 -315 13 -22 30 -51 36 -65 15 -29 31 -53 105 -165 104 -158 150 -221 221
-310 40 -49 82 -103 94 -119 66 -85 172 -180 255 -228 50 -29 229 -39 277 -15
17 8 57 27 89 43 32 15 69 43 85 63 46 61 74 105 88 136 17 43 29 211 16 238
-6 12 -25 54 -43 92 -20 44 -75 123 -148 213 -118 146 -275 365 -308 432 -7
14 -24 43 -37 65 -13 22 -34 58 -45 80 -11 22 -25 47 -30 55 -5 8 -21 44 -36
80 -15 36 -36 83 -46 106 -10 22 -19 48 -19 58 0 9 -6 29 -14 45 -8 15 -27 86
-41 157 -24 115 -27 144 -22 269 3 77 12 165 20 195 8 30 20 73 25 95 27 104
79 218 160 350 17 28 40 68 51 90 11 22 39 65 61 95 23 30 49 66 58 80 49 72
145 196 217 280 45 52 105 124 135 160 29 36 56 67 60 70 4 3 61 70 126 150
66 80 127 154 136 165 26 31 99 127 143 191 22 31 58 80 80 108 52 66 99 138
131 201 29 56 95 181 143 268 32 59 50 102 77 187 8 25 20 59 28 75 8 17 17
52 21 78 3 27 13 66 20 88 17 48 40 272 40 389 -1 123 -23 352 -39 398 -8 22
-18 62 -21 89 -4 26 -15 68 -25 93 -25 65 -40 109 -57 160 -8 25 -20 59 -28
75 -21 47 -125 258 -138 280 -23 41 -55 92 -98 160 -24 39 -49 77 -54 86 -21
34 -64 96 -93 134 -17 22 -38 49 -46 60 -110 145 -125 164 -211 261 -219 248
-216 246 -340 322 -27 17 -58 38 -67 46 -23 21 -228 24 -228 4z"/>
<path d="M12377 25587 c-3 -8 -40 -31 -82 -51 -55 -28 -84 -50 -106 -80 -90
-125 -103 -163 -97 -293 4 -83 14 -121 50 -178 7 -11 24 -38 37 -60 14 -22 30
-44 36 -50 95 -90 412 -478 462 -566 31 -55 38 -66 52 -83 34 -41 179 -332
197 -396 7 -25 20 -63 28 -85 8 -22 15 -52 16 -67 0 -15 5 -39 11 -55 19 -47
28 -193 19 -283 -14 -128 -65 -322 -97 -362 -5 -7 -27 -47 -47 -88 -67 -134
-108 -204 -165 -280 -31 -42 -74 -101 -96 -133 -38 -57 -179 -232 -234 -292
-15 -16 -69 -82 -121 -145 -51 -63 -101 -122 -110 -130 -20 -18 -224 -273
-260 -325 -14 -20 -30 -42 -35 -48 -53 -61 -172 -234 -201 -292 -9 -16 -26
-48 -39 -70 -13 -22 -33 -56 -43 -75 -10 -19 -32 -57 -49 -85 -33 -57 -83
-162 -83 -178 0 -5 -9 -28 -19 -51 -25 -53 -49 -125 -66 -201 -8 -33 -21 -85
-29 -115 -9 -30 -16 -73 -16 -95 0 -22 -7 -80 -16 -130 -21 -119 -14 -258 26
-540 5 -38 21 -110 35 -160 15 -49 32 -112 39 -140 13 -50 30 -93 67 -170 10
-22 19 -45 19 -50 0 -6 8 -26 19 -45 10 -19 22 -46 26 -60 7 -21 116 -224 146
-270 5 -8 15 -26 21 -40 7 -14 33 -54 57 -90 39 -55 99 -143 161 -234 35 -51
265 -333 289 -354 25 -23 52 -42 136 -99 36 -25 50 -28 152 -31 98 -4 116 -2
145 16 18 11 44 22 58 25 41 10 103 70 159 154 l51 77 0 116 c0 97 -3 120 -20
148 -11 18 -20 38 -20 45 -1 23 -103 166 -197 274 -43 50 -123 160 -221 308
-47 71 -64 99 -101 170 -11 22 -34 63 -50 90 -16 28 -30 57 -30 65 -1 8 -8 28
-17 45 -27 52 -74 176 -74 195 0 11 -8 41 -19 67 -32 81 -47 300 -32 446 8 67
19 138 27 157 7 19 18 53 23 75 17 73 80 201 178 364 12 20 26 45 32 57 5 11
20 36 33 55 22 33 41 59 148 198 25 32 54 71 65 87 29 40 76 98 83 104 4 3 32
34 62 70 30 36 60 70 66 75 6 6 26 30 44 55 18 25 38 50 44 55 6 6 65 75 131
155 65 80 121 147 124 150 4 3 29 36 56 73 28 37 66 89 86 115 39 51 106 146
143 202 12 19 49 85 81 145 33 61 71 133 86 160 48 89 78 156 90 198 6 23 15
47 19 52 8 10 34 97 51 175 6 25 17 74 25 110 34 145 37 550 6 630 -5 14 -13
50 -17 80 -10 76 -82 318 -111 372 -8 14 -14 32 -14 40 0 16 -169 353 -198
395 -11 16 -42 64 -70 108 -49 77 -121 178 -208 288 -22 29 -64 83 -93 120
-29 38 -60 77 -69 86 -10 10 -53 57 -97 106 -44 49 -93 102 -110 119 -29 31
-182 136 -197 136 -4 0 -8 7 -8 15 0 12 -19 15 -114 15 -86 0 -115 -3 -119
-13z"/>
<path d="M15880 25589 c0 -5 -19 -19 -42 -30 -24 -12 -56 -28 -73 -36 -34 -17
-95 -72 -95 -85 0 -5 -9 -22 -20 -38 -11 -17 -29 -43 -40 -60 -17 -25 -20 -46
-20 -154 0 -72 4 -127 10 -131 5 -3 22 -31 36 -62 26 -54 96 -144 197 -253 54
-58 168 -197 202 -245 11 -15 27 -35 35 -44 21 -22 78 -106 186 -271 35 -54
144 -273 144 -290 0 -8 8 -31 19 -50 10 -19 23 -57 30 -85 6 -27 18 -75 27
-105 18 -65 22 -358 6 -430 -22 -95 -51 -181 -84 -247 -58 -116 -140 -267
-154 -284 -8 -8 -14 -19 -14 -23 0 -4 -19 -32 -42 -61 -24 -30 -54 -70 -68
-89 -14 -20 -32 -46 -40 -57 -15 -21 -186 -233 -220 -272 -10 -12 -34 -40 -52
-63 -58 -72 -278 -333 -303 -360 -14 -15 -39 -46 -57 -71 -18 -24 -51 -68 -74
-96 -22 -29 -65 -86 -94 -127 -30 -41 -57 -77 -61 -80 -3 -3 -14 -18 -23 -35
-9 -16 -28 -48 -41 -70 -13 -22 -32 -53 -40 -70 -9 -16 -26 -46 -38 -67 -50
-84 -97 -169 -97 -177 0 -5 -6 -14 -14 -20 -8 -7 -18 -27 -22 -44 -4 -18 -15
-48 -25 -67 -11 -19 -19 -41 -19 -48 0 -7 -7 -27 -17 -45 -18 -36 -41 -118
-79 -282 -23 -98 -27 -138 -31 -360 -4 -226 -3 -259 16 -349 12 -55 21 -111
21 -125 1 -14 8 -44 16 -66 9 -22 22 -65 29 -95 21 -82 44 -151 66 -192 10
-20 19 -42 19 -49 0 -6 9 -30 19 -53 11 -23 32 -68 47 -101 15 -33 55 -110 90
-172 35 -62 64 -115 64 -118 0 -3 8 -18 19 -33 10 -15 44 -65 75 -112 31 -47
71 -106 89 -133 18 -26 96 -127 174 -225 107 -133 159 -190 213 -230 107 -80
138 -92 252 -92 95 0 97 1 186 46 78 40 95 54 123 98 18 28 40 60 50 71 13 14
23 55 34 128 13 97 13 112 -1 154 -33 97 -98 207 -163 274 -9 9 -26 29 -39 45
-12 16 -51 65 -85 109 -35 44 -72 94 -82 112 -11 18 -41 63 -66 100 -62 92
-81 122 -101 163 -10 19 -29 53 -43 75 -13 22 -27 47 -31 55 -4 8 -17 38 -30
67 -13 28 -24 55 -24 60 0 4 -8 26 -19 48 -24 51 -55 156 -81 271 -15 69 -20
128 -20 240 0 132 3 161 29 259 42 160 68 225 142 350 16 28 35 64 44 80 8 17
20 39 27 50 58 93 109 168 143 212 22 29 60 80 85 113 25 33 51 67 58 75 6 7
58 69 113 137 56 68 105 125 108 128 4 3 49 57 101 120 52 63 115 138 141 167
43 48 171 213 211 273 9 14 35 50 57 80 68 91 120 172 147 225 14 28 46 86 70
130 25 44 54 98 64 120 11 22 24 47 29 55 5 8 20 47 34 85 13 39 30 86 37 105
7 19 17 53 22 75 5 22 18 73 29 112 17 63 41 300 41 403 0 90 -24 324 -37 363
-8 24 -19 72 -24 108 -5 35 -16 80 -24 99 -26 62 -56 144 -63 175 -4 17 -13
41 -20 55 -7 14 -30 59 -49 100 -57 117 -65 134 -76 150 -5 8 -14 26 -20 40
-9 21 -96 158 -160 252 -11 15 -19 30 -19 33 0 4 -25 39 -55 78 -30 40 -90
118 -132 173 -43 56 -112 139 -154 185 -42 46 -103 113 -135 149 -59 66 -171
152 -231 177 -18 7 -33 18 -33 23 0 6 -43 10 -105 10 -67 0 -105 -4 -105 -11z"/>
<path d="M19280 16600 c-58 -4 -3492 -8 -7631 -9 -6689 -1 -7528 -3 -7539 -16
-8 -10 -10 -29 -6 -53 3 -21 10 -146 16 -278 6 -131 15 -282 21 -334 5 -52 16
-223 24 -380 8 -157 19 -312 24 -345 6 -33 15 -133 21 -222 5 -89 14 -183 20
-211 5 -27 14 -123 20 -213 6 -90 15 -189 20 -219 5 -30 16 -147 25 -258 8
-112 17 -208 20 -212 3 -4 12 -95 20 -202 8 -106 19 -209 24 -228 6 -19 15
-93 21 -165 6 -71 15 -146 20 -165 5 -19 14 -89 20 -155 6 -66 17 -156 25
-200 8 -44 17 -116 20 -160 4 -44 13 -116 20 -160 8 -44 19 -134 25 -199 6
-65 15 -138 20 -162 5 -23 14 -96 20 -161 6 -65 17 -152 24 -193 8 -41 18
-109 21 -150 4 -41 13 -100 20 -130 8 -30 17 -89 20 -130 4 -41 13 -104 21
-139 8 -36 19 -110 25 -165 5 -56 14 -114 19 -129 5 -15 14 -76 21 -135 6 -59
15 -118 21 -131 5 -14 15 -70 23 -126 7 -55 21 -131 29 -170 9 -38 16 -83 16
-99 0 -15 9 -65 19 -110 11 -44 22 -112 26 -151 4 -38 11 -80 16 -93 5 -13 16
-70 24 -126 8 -56 18 -113 24 -127 5 -14 12 -52 16 -85 4 -32 16 -92 26 -133
10 -41 19 -87 19 -101 0 -14 9 -60 19 -101 11 -41 23 -101 27 -134 4 -33 13
-76 20 -96 7 -20 15 -63 19 -95 4 -33 15 -90 25 -129 10 -38 21 -92 25 -120 4
-27 11 -57 16 -66 4 -9 13 -47 19 -85 6 -38 18 -89 26 -114 14 -44 31 -123 59
-270 8 -41 19 -85 25 -98 5 -13 15 -55 21 -95 6 -40 15 -80 20 -89 5 -10 14
-41 19 -70 5 -29 18 -82 29 -118 22 -76 35 -127 61 -230 24 -97 38 -150 61
-230 27 -97 49 -178 64 -242 7 -31 20 -76 28 -100 8 -24 27 -83 42 -133 15
-49 32 -101 37 -115 6 -14 19 -54 28 -90 22 -78 54 -184 69 -225 19 -56 42
-130 56 -180 7 -27 20 -63 29 -80 9 -16 16 -37 16 -45 0 -8 9 -33 20 -55 11
-22 19 -47 20 -55 0 -8 8 -31 19 -50 10 -19 22 -51 26 -70 4 -19 11 -40 16
-46 5 -6 18 -35 28 -65 30 -88 43 -121 61 -169 10 -25 28 -72 40 -105 24 -64
43 -109 110 -250 23 -49 53 -112 65 -140 81 -180 184 -391 209 -428 12 -18 37
-58 56 -90 19 -32 45 -75 57 -95 45 -76 68 -114 83 -140 40 -70 99 -160 140
-213 19 -25 44 -58 55 -74 29 -40 129 -158 198 -232 l59 -63 5113 0 5112 0 89
96 c49 53 95 106 103 118 8 12 17 23 21 26 3 3 32 41 65 85 33 44 62 82 65 85
13 13 116 179 145 235 9 17 29 50 45 75 16 25 48 78 72 119 24 40 53 90 64
110 24 41 65 122 99 196 12 28 41 88 63 135 22 47 59 126 82 175 23 50 55 117
71 151 16 33 29 68 29 77 0 9 4 19 10 22 5 3 16 27 24 53 14 44 24 71 91 247
14 39 33 88 40 110 14 41 45 122 91 243 14 37 31 90 39 117 7 28 17 61 23 75
5 14 22 66 38 115 65 213 78 253 99 305 25 62 18 60 145 42 201 -29 958 -21
1120 11 41 9 111 20 155 26 118 15 213 31 280 47 33 8 87 21 120 28 33 7 83
20 110 28 28 9 70 21 95 27 77 19 172 48 245 76 66 25 127 47 205 75 72 26
158 62 235 100 213 102 380 185 385 190 3 4 34 23 70 44 36 21 85 50 110 66
25 17 52 33 60 37 8 4 26 14 40 23 14 9 45 30 70 46 25 15 59 39 75 51 17 13
35 27 40 31 273 200 426 328 634 532 70 69 317 343 357 396 16 21 34 44 39 51
6 7 30 40 55 73 25 33 63 84 85 113 56 72 177 258 265 407 11 19 29 49 40 65
19 30 68 128 186 370 58 120 70 149 104 245 7 19 21 55 30 80 10 25 27 71 38
103 12 31 30 81 41 110 12 28 25 75 30 102 5 28 17 67 25 87 9 21 16 49 16 63
0 14 9 51 19 82 27 83 52 188 62 263 5 36 18 117 29 180 44 261 50 350 50 760
0 410 -6 507 -50 755 -11 61 -22 137 -25 170 -4 33 -13 83 -21 110 -24 85 -45
167 -59 235 -8 36 -21 82 -29 102 -9 21 -16 49 -16 63 0 15 -8 47 -19 73 -10
26 -31 81 -46 122 -15 41 -35 95 -45 120 -9 25 -23 61 -30 80 -34 97 -46 124
-102 240 -77 161 -169 345 -186 373 -7 12 -26 42 -42 67 -16 25 -45 74 -66
110 -21 36 -40 67 -44 70 -3 3 -19 28 -35 55 -15 28 -37 61 -47 75 -11 14 -40
53 -66 87 -26 33 -80 106 -120 161 -70 97 -319 381 -413 472 -151 147 -327
304 -427 380 -40 30 -107 82 -150 115 -43 33 -125 91 -182 129 -58 38 -117 77
-132 87 -15 11 -30 19 -34 19 -4 0 -37 19 -73 43 -128 81 -207 125 -238 133
-12 3 -27 12 -34 20 -6 8 -17 14 -23 14 -6 0 -56 23 -111 50 -55 28 -105 50
-111 50 -5 0 -15 5 -21 11 -13 13 -147 69 -166 69 -7 1 -30 9 -52 20 -22 11
-47 19 -55 20 -8 0 -31 8 -50 19 -19 10 -51 22 -70 26 -19 4 -44 13 -55 20
-11 7 -36 15 -55 19 -19 4 -60 15 -90 25 -30 10 -77 23 -105 29 -62 13 -120
28 -205 54 -36 11 -87 22 -115 24 -86 9 -94 12 -113 52 l-17 37 -340 6 c-187
3 -396 9 -465 12 -69 3 -172 2 -230 -3z m-7866 -1351 c20 -12 36 -25 36 -30 0
-5 15 -16 33 -25 17 -9 43 -28 57 -41 40 -39 120 -103 129 -103 4 0 22 -13 39
-30 18 -16 38 -30 46 -30 8 0 21 -8 28 -18 14 -20 76 -64 139 -98 21 -12 55
-35 74 -50 65 -54 94 -74 122 -87 28 -12 58 -33 127 -90 19 -15 50 -34 69 -42
20 -8 49 -26 64 -40 82 -75 137 -115 199 -145 23 -11 58 -35 79 -54 34 -32 37
-37 24 -53 -31 -39 -66 -62 -110 -73 -26 -6 -57 -22 -69 -35 -12 -13 -39 -26
-60 -30 -23 -4 -49 -18 -66 -36 -15 -16 -36 -29 -45 -29 -10 0 -30 -11 -46
-24 -15 -13 -44 -28 -64 -35 -20 -6 -44 -20 -54 -31 -10 -11 -39 -26 -66 -35
-27 -9 -53 -25 -59 -34 -5 -10 -27 -23 -50 -30 -23 -7 -50 -21 -61 -32 -11
-11 -39 -27 -62 -35 -23 -8 -51 -23 -62 -33 -11 -10 -35 -26 -53 -35 -18 -10
-35 -23 -38 -31 -3 -7 -26 -18 -50 -24 -25 -7 -55 -22 -67 -34 -12 -13 -44
-31 -70 -41 -27 -10 -51 -24 -53 -31 -3 -7 -20 -19 -37 -26 -18 -7 -39 -19
-49 -26 -14 -13 -17 -12 -24 9 -5 13 -7 145 -6 293 2 225 0 273 -12 288 -16
20 -88 41 -115 33 -9 -3 -68 -10 -131 -16 -86 -8 -122 -16 -142 -30 -30 -22
-95 -39 -149 -40 -22 0 -51 -10 -75 -26 -28 -19 -59 -29 -107 -34 -47 -5 -79
-16 -105 -33 -20 -14 -62 -30 -92 -36 -30 -7 -64 -20 -75 -30 -11 -10 -39 -23
-63 -30 -23 -6 -59 -23 -79 -36 -20 -14 -41 -25 -48 -25 -7 0 -30 -12 -51 -26
-21 -15 -56 -33 -78 -40 -21 -8 -49 -25 -60 -37 -13 -14 -39 -27 -64 -30 -23
-4 -49 -16 -59 -26 -10 -10 -42 -29 -70 -41 -29 -12 -53 -27 -53 -32 0 -5 -21
-18 -47 -29 -44 -19 -90 -51 -143 -102 -14 -13 -33 -27 -44 -31 -18 -6 -38
-21 -124 -89 -73 -58 -117 -96 -193 -169 -39 -38 -75 -68 -82 -68 -13 0 -25
-11 -109 -97 -32 -32 -62 -62 -68 -68 -12 -12 -93 -96 -140 -145 -57 -60 -144
-161 -154 -178 -5 -10 -21 -29 -35 -43 -14 -15 -42 -50 -61 -79 -19 -29 -50
-68 -67 -87 -18 -18 -33 -37 -33 -42 0 -4 -12 -21 -27 -38 -27 -28 -37 -44
-93 -139 -14 -23 -33 -50 -42 -61 -9 -10 -24 -37 -33 -60 -9 -23 -23 -44 -30
-47 -8 -3 -21 -28 -29 -56 -8 -28 -27 -65 -41 -81 -14 -17 -25 -36 -25 -42 0
-7 -11 -29 -25 -49 -13 -20 -33 -59 -44 -88 -11 -29 -26 -60 -34 -69 -8 -9
-20 -34 -27 -56 -7 -22 -23 -56 -35 -75 -13 -19 -27 -53 -31 -75 -4 -22 -17
-52 -29 -66 -14 -17 -26 -53 -34 -100 -6 -40 -21 -87 -32 -105 -11 -19 -23
-66 -30 -115 -7 -59 -17 -94 -34 -119 -17 -25 -26 -59 -33 -116 -7 -57 -16
-90 -32 -111 -17 -24 -23 -52 -31 -139 -11 -122 -24 -212 -39 -264 -22 -77
-32 -319 -27 -640 6 -313 16 -461 37 -525 5 -16 17 -88 25 -159 11 -95 21
-139 36 -165 17 -27 24 -62 30 -139 8 -99 18 -132 45 -159 7 -7 16 -45 20 -84
4 -44 16 -88 30 -115 13 -24 30 -69 38 -100 8 -31 23 -66 34 -78 11 -11 22
-41 26 -66 4 -24 20 -67 35 -95 16 -27 32 -65 36 -83 4 -18 17 -45 30 -60 12
-15 27 -43 32 -62 6 -19 22 -53 37 -74 14 -21 26 -45 26 -52 0 -7 11 -26 25
-42 14 -17 32 -49 40 -73 9 -24 22 -50 29 -59 8 -8 23 -33 34 -56 11 -22 28
-46 36 -54 9 -7 24 -28 32 -46 9 -19 20 -34 25 -34 5 0 20 -22 33 -48 13 -27
32 -54 40 -62 9 -7 24 -28 32 -46 9 -19 20 -34 25 -34 5 0 17 -17 28 -37 10
-21 30 -50 42 -65 51 -57 80 -94 99 -125 11 -18 24 -33 28 -33 5 0 23 -21 40
-47 33 -52 264 -282 401 -402 48 -41 96 -84 108 -95 13 -12 38 -33 55 -48 18
-15 53 -45 78 -68 24 -22 47 -40 51 -40 4 0 26 -16 49 -35 23 -19 48 -35 54
-35 7 0 21 -10 32 -21 10 -12 35 -29 54 -38 19 -9 46 -24 60 -34 75 -53 99
-69 140 -90 25 -12 56 -32 69 -44 13 -12 35 -24 49 -28 15 -3 44 -18 64 -32
20 -13 56 -29 80 -35 24 -5 54 -20 68 -33 14 -13 43 -28 66 -34 22 -6 49 -19
58 -30 9 -10 38 -25 64 -32 26 -7 53 -20 59 -30 7 -9 36 -23 65 -29 28 -7 73
-24 98 -37 26 -13 76 -28 111 -33 36 -5 85 -20 110 -34 33 -18 69 -27 142 -34
81 -8 102 -14 122 -32 21 -20 40 -24 130 -31 77 -5 109 -12 121 -24 28 -28 55
-33 205 -41 118 -5 151 -10 184 -28 39 -20 52 -21 460 -21 411 0 421 0 465 22
37 18 69 23 175 27 130 5 185 16 217 43 11 10 53 18 116 23 92 7 152 25 167
50 3 5 30 10 58 10 63 0 156 21 217 49 25 11 57 21 71 21 15 0 52 13 82 29 30
16 79 34 107 40 29 6 64 20 79 30 14 10 48 28 76 40 27 12 56 28 65 35 8 7 27
16 41 19 14 4 42 18 62 31 20 14 54 30 75 36 22 5 50 18 63 28 13 11 49 31 79
46 70 34 132 71 145 88 5 7 30 23 55 36 53 26 107 62 135 90 11 10 36 27 55
37 19 10 51 31 70 46 19 16 48 39 63 52 16 12 59 50 95 84 37 35 101 89 142
121 138 107 462 444 536 557 10 15 30 41 45 57 50 56 58 67 84 118 14 27 30
50 35 50 5 0 16 13 25 30 8 16 25 40 36 52 39 43 78 100 96 139 9 21 20 39 25
39 10 0 48 74 48 93 0 8 9 22 20 32 12 10 30 39 41 64 11 25 26 52 33 61 7 8
19 33 26 55 7 22 23 56 36 75 13 19 28 59 34 88 7 28 16 52 21 52 12 0 35 47
44 90 4 19 15 44 26 55 10 11 25 48 33 83 8 34 24 77 35 96 13 21 25 65 32
116 6 54 17 91 30 109 25 34 38 89 39 159 0 37 8 68 27 105 22 45 27 70 34
182 6 89 14 146 28 180 26 67 41 231 41 441 0 123 3 175 12 180 17 11 268 18
313 10 21 -4 48 -18 61 -31 22 -22 24 -33 24 -110 0 -59 -6 -103 -19 -141 -26
-73 -31 -109 -40 -304 -6 -129 -12 -173 -26 -200 -10 -19 -26 -82 -36 -141
-10 -59 -25 -121 -33 -137 -9 -17 -22 -74 -30 -126 -9 -56 -23 -110 -34 -129
-11 -17 -25 -59 -31 -91 -6 -33 -20 -78 -32 -99 -11 -22 -24 -63 -30 -91 -5
-28 -20 -72 -34 -98 -14 -26 -28 -65 -31 -88 -4 -23 -17 -57 -30 -76 -13 -19
-27 -47 -30 -62 -4 -15 -20 -52 -35 -82 -16 -30 -38 -75 -49 -100 -11 -25 -27
-56 -35 -70 -8 -14 -22 -41 -30 -60 -17 -38 -57 -108 -92 -161 -13 -19 -23
-42 -23 -51 0 -9 -11 -30 -25 -46 -13 -16 -34 -50 -44 -76 -11 -25 -25 -46
-30 -46 -5 0 -13 -9 -16 -20 -4 -11 -24 -41 -46 -66 -21 -25 -39 -49 -39 -53
0 -5 -13 -26 -29 -47 -52 -68 -95 -124 -126 -162 -64 -78 -95 -121 -95 -129 0
-5 -111 -123 -247 -262 -234 -239 -398 -392 -452 -420 -13 -7 -50 -34 -83 -59
-124 -97 -144 -112 -183 -133 -22 -12 -45 -30 -52 -39 -7 -10 -27 -23 -45 -30
-18 -8 -45 -24 -60 -36 -16 -13 -38 -26 -50 -29 -13 -4 -35 -18 -49 -32 -26
-24 -36 -30 -136 -84 -26 -15 -56 -36 -66 -47 -11 -11 -37 -24 -59 -27 -22 -4
-49 -16 -60 -27 -11 -11 -43 -28 -71 -38 -29 -9 -68 -27 -87 -38 -19 -11 -54
-25 -78 -32 -23 -6 -58 -21 -77 -34 -18 -13 -51 -26 -73 -29 -21 -4 -51 -18
-66 -32 -15 -14 -39 -25 -54 -25 -44 0 -105 -20 -130 -43 -15 -14 -43 -23 -89
-29 -36 -4 -85 -17 -107 -29 -23 -12 -78 -27 -123 -35 -45 -7 -99 -22 -121
-33 -25 -13 -77 -24 -143 -31 -69 -7 -116 -17 -144 -32 -32 -17 -68 -22 -185
-29 -115 -7 -152 -13 -185 -30 -59 -30 -254 -42 -582 -35 -211 4 -282 9 -315
21 -88 33 -106 36 -254 44 -129 6 -156 11 -186 29 -25 16 -63 25 -133 32 -64
7 -117 19 -154 35 -33 14 -93 29 -146 35 -55 7 -102 19 -121 31 -17 10 -58 23
-92 27 -42 6 -69 16 -91 34 -22 19 -47 28 -88 33 -32 3 -65 10 -73 16 -8 5
-28 18 -45 29 -16 11 -40 20 -51 20 -12 0 -38 14 -59 30 -21 17 -48 30 -60 30
-13 0 -49 14 -81 31 -33 17 -80 38 -106 45 -27 8 -48 19 -48 25 0 5 -24 21
-52 35 -108 52 -158 80 -180 100 -13 12 -37 26 -55 33 -17 7 -39 21 -49 32 -9
10 -22 19 -29 19 -6 0 -34 16 -61 35 -27 19 -57 35 -67 35 -10 0 -28 11 -41
25 -24 26 -50 46 -145 112 -81 57 -106 76 -127 96 -11 10 -59 52 -109 93 -95
81 -267 237 -320 292 -17 17 -37 32 -43 32 -6 0 -17 10 -23 22 -7 12 -26 37
-43 55 -88 91 -152 164 -198 223 -28 36 -56 72 -64 80 -7 8 -28 33 -46 54 -18
22 -47 53 -64 70 -17 18 -34 43 -37 58 -6 23 -25 50 -101 144 -13 16 -28 42
-31 56 -4 14 -16 36 -28 49 -12 13 -31 41 -43 63 -37 74 -77 141 -94 161 -10
11 -23 37 -30 57 -6 21 -20 44 -31 52 -11 7 -26 37 -34 66 -8 29 -23 62 -34
74 -10 11 -25 41 -31 66 -6 25 -20 54 -30 65 -10 11 -23 40 -30 65 -6 25 -22
61 -35 80 -13 19 -28 62 -34 95 -6 33 -20 72 -31 86 -10 15 -24 58 -30 95 -7
38 -20 81 -31 96 -11 15 -26 60 -34 100 -9 40 -24 85 -35 100 -12 17 -23 57
-30 115 -6 48 -20 107 -31 130 -15 31 -24 83 -34 192 -11 126 -16 156 -36 188
l-24 38 0 610 0 610 24 45 c20 37 27 71 36 185 10 109 17 148 34 176 14 24 24
66 31 134 8 75 15 104 30 120 11 11 26 50 33 87 8 36 24 79 36 96 11 17 24 52
27 79 4 26 17 67 30 90 14 24 29 69 35 100 6 32 21 74 34 93 13 19 29 58 35
87 6 28 20 59 31 69 10 9 24 36 30 58 6 23 22 58 36 78 13 20 27 55 30 77 4
26 15 49 34 67 16 15 29 33 29 39 0 6 12 27 26 46 14 19 31 48 39 66 7 17 22
40 34 52 11 11 25 38 31 60 6 22 19 46 29 53 10 7 26 29 36 48 10 19 28 48 41
63 13 16 24 36 24 46 0 9 12 28 28 42 15 14 35 38 45 54 38 65 87 130 145 194
18 20 61 72 96 116 35 44 79 97 99 117 20 21 38 47 42 57 3 11 15 23 26 26 10
4 26 20 34 36 9 16 20 29 26 29 5 0 55 44 110 98 100 98 133 128 224 202 50
42 102 86 162 141 18 16 37 29 42 29 5 0 12 9 16 19 3 11 16 23 28 27 12 3 38
18 57 33 19 16 49 35 67 44 18 10 36 23 40 31 4 7 28 23 53 35 66 31 123 68
141 89 8 11 35 28 60 39 24 11 50 27 58 36 7 10 19 17 27 17 7 0 28 13 46 28
18 16 56 34 83 41 28 7 59 21 70 30 11 10 43 26 71 35 28 9 66 28 84 41 19 14
44 25 55 25 12 0 42 13 66 30 24 16 57 30 72 30 34 0 82 24 90 44 4 10 29 17
77 22 49 5 82 14 105 30 19 12 62 28 97 35 35 6 79 20 98 32 19 11 75 26 123
33 54 8 102 22 124 35 31 19 55 23 167 28 l131 6 48 40 c26 22 50 50 54 63 3
13 3 110 0 215 -4 151 -9 209 -26 271 -26 99 -26 110 2 124 32 15 42 14 81 -9z
m2212 -611 c22 -16 48 -28 57 -28 9 0 25 -12 34 -27 10 -16 27 -37 39 -48 12
-11 27 -40 34 -65 6 -25 19 -53 27 -62 10 -11 17 -47 20 -102 5 -77 3 -89 -19
-133 -14 -26 -29 -63 -33 -81 -3 -18 -16 -37 -28 -44 -12 -6 -30 -21 -39 -33
-10 -13 -30 -26 -45 -30 -15 -3 -45 -16 -67 -27 -30 -15 -67 -22 -137 -25 -91
-5 -99 -4 -141 21 -25 14 -53 26 -62 26 -16 0 -40 23 -140 130 -17 18 -27 47
-37 107 -11 73 -10 92 5 163 18 83 23 92 104 175 62 63 109 98 141 107 14 3
76 6 137 5 103 -2 114 -4 150 -29z m6673 -244 c36 -8 69 -18 75 -23 6 -5 34
-16 61 -24 76 -24 160 -54 181 -65 10 -6 64 -31 119 -57 116 -54 125 -59 202
-104 65 -38 248 -158 278 -184 11 -9 47 -36 79 -61 72 -56 221 -191 290 -265
28 -30 58 -62 66 -71 25 -25 111 -133 160 -200 25 -33 55 -74 68 -89 12 -16
22 -32 22 -35 0 -4 8 -19 19 -34 72 -105 201 -340 201 -367 0 -6 5 -16 11 -22
13 -13 69 -148 69 -166 0 -7 6 -23 13 -37 17 -34 60 -173 90 -295 107 -428
112 -976 11 -1380 -8 -33 -21 -87 -28 -120 -15 -66 -49 -172 -72 -222 -7 -17
-14 -37 -14 -44 0 -7 -9 -33 -21 -58 -11 -25 -30 -68 -42 -95 -42 -93 -129
-261 -165 -316 -94 -146 -130 -199 -167 -247 -22 -28 -55 -73 -74 -98 -73 -98
-382 -397 -471 -455 -12 -8 -46 -33 -74 -55 -70 -55 -101 -76 -171 -115 -33
-19 -75 -44 -92 -56 -18 -12 -88 -49 -155 -82 -184 -89 -213 -102 -229 -102
-8 -1 -32 -9 -54 -20 -22 -11 -47 -20 -55 -20 -8 0 -33 -9 -55 -20 -22 -11
-49 -19 -60 -20 -11 0 -49 -8 -85 -19 -106 -32 -239 -60 -335 -71 -49 -5 -124
-14 -165 -20 -90 -12 -375 -18 -386 -8 -10 11 -9 57 4 108 14 54 40 187 56
290 7 41 20 107 29 145 9 39 21 95 26 125 6 30 15 78 21 105 28 136 43 218 56
305 8 52 19 109 24 125 5 17 14 70 20 119 6 48 17 113 25 144 8 31 15 70 15
87 0 16 7 62 16 100 8 39 22 115 29 170 8 56 18 113 24 127 6 15 13 62 17 105
3 43 12 106 20 141 8 35 19 107 25 160 6 53 17 124 24 157 7 33 16 94 20 135
3 41 12 100 20 130 7 30 16 87 20 125 3 39 13 106 20 150 8 44 19 134 25 200
6 66 15 136 20 155 5 20 14 92 20 160 6 69 17 159 25 200 8 41 17 116 20 165
4 50 13 122 21 160 7 39 18 126 24 195 6 68 15 140 20 160 5 19 14 89 20 155
6 66 17 156 25 200 7 44 17 132 20 195 4 63 13 158 20 210 8 52 17 145 20 205
9 157 25 285 41 324 12 28 18 32 36 26 13 -3 52 -13 87 -21z m-5490 -309 c46
-5 53 -10 138 -96 46 -47 54 -62 78 -147 30 -105 29 -136 -4 -247 -17 -58 -30
-79 -77 -126 -49 -49 -65 -59 -132 -79 -122 -35 -161 -36 -260 -4 -91 28 -84
23 -201 149 -26 27 -45 156 -38 254 5 78 28 143 61 170 9 8 16 20 16 27 0 8
17 25 38 39 20 14 48 32 61 42 37 27 164 34 320 18z m986 -895 c33 -5 71 -19
85 -30 14 -12 36 -28 50 -37 14 -9 43 -46 65 -82 39 -66 39 -66 43 -192 l4
-126 -42 -76 c-23 -43 -46 -77 -51 -77 -5 0 -23 -13 -40 -29 -49 -48 -177 -65
-338 -46 -58 7 -68 12 -133 68 -39 33 -76 74 -84 91 -7 17 -22 45 -34 61 -16
25 -20 46 -20 126 0 86 3 100 25 133 14 20 25 41 25 47 0 9 26 39 102 116 36
37 48 43 97 48 31 3 63 8 71 9 33 8 118 5 175 -4z m-1807 -438 c24 -23 48 -57
53 -75 21 -73 4 -222 -26 -233 -8 -3 -23 -21 -34 -40 -11 -19 -27 -34 -34 -34
-37 0 -38 -16 -40 -597 -2 -565 -2 -568 -24 -609 -13 -25 -26 -76 -33 -128
-12 -96 -16 -112 -41 -144 -9 -12 -20 -45 -24 -73 -5 -34 -13 -54 -27 -62 -11
-7 -28 -29 -39 -49 -48 -93 -129 -202 -258 -346 -31 -35 -60 -73 -65 -84 -6
-11 -27 -28 -48 -39 -21 -11 -38 -23 -38 -28 0 -4 -10 -13 -23 -18 -13 -6 -56
-39 -96 -74 -40 -34 -85 -70 -100 -78 -70 -40 -97 -58 -130 -87 -20 -17 -52
-34 -72 -38 -20 -3 -46 -17 -59 -31 -12 -13 -35 -27 -50 -30 -15 -3 -43 -17
-61 -31 -18 -13 -50 -29 -71 -34 -20 -6 -50 -22 -66 -35 -17 -14 -34 -25 -38
-25 -12 0 -114 -95 -114 -105 0 -5 -10 -19 -21 -31 -12 -13 -25 -41 -29 -63
-6 -33 -3 -45 22 -82 34 -51 109 -129 124 -129 6 0 21 -11 34 -25 13 -14 48
-33 78 -41 29 -9 56 -22 59 -29 2 -8 26 -22 51 -31 26 -10 58 -27 72 -39 14
-12 41 -28 60 -35 19 -8 48 -24 63 -37 16 -13 34 -23 41 -23 7 0 21 -10 32
-21 10 -12 37 -30 59 -40 22 -10 50 -28 62 -41 12 -13 59 -52 104 -88 129
-102 312 -291 361 -370 10 -17 22 -30 27 -30 5 0 11 -10 15 -23 3 -13 21 -43
41 -68 19 -24 35 -49 35 -55 0 -5 11 -26 25 -44 14 -19 32 -57 40 -83 8 -27
23 -63 35 -81 11 -18 25 -68 31 -112 6 -43 22 -105 35 -136 24 -57 24 -60 24
-450 l0 -393 50 -55 c77 -84 84 -101 84 -213 l1 -97 -46 -44 c-46 -43 -48 -44
-130 -50 -82 -6 -2463 -20 -3008 -19 -155 1 -311 7 -359 13 -77 11 -89 16
-127 51 -64 59 -78 125 -50 232 12 46 25 67 64 105 27 26 54 57 60 69 8 15 11
154 11 445 l0 424 24 33 c15 19 29 59 36 99 6 37 20 80 29 97 10 16 27 55 36
85 10 30 29 68 41 83 13 16 24 34 24 41 0 7 9 21 21 32 12 10 32 40 45 67 13
26 28 47 32 47 5 0 15 12 23 28 27 55 200 247 264 294 22 16 65 51 95 78 67
60 110 91 173 125 26 14 47 30 47 36 0 5 16 17 36 25 40 17 128 72 160 101 11
10 40 25 65 32 24 7 56 24 71 36 15 13 41 26 56 30 16 3 39 15 51 26 12 11 38
27 59 36 48 19 67 37 108 99 39 59 44 108 15 145 -10 13 -22 35 -26 48 -16 52
-105 124 -224 182 -25 12 -53 30 -64 40 -11 9 -36 21 -57 24 -21 4 -48 17 -60
30 -13 14 -44 31 -71 40 -26 9 -50 22 -53 30 -3 8 -22 23 -43 35 -65 36 -125
79 -316 228 -99 77 -276 273 -292 322 -3 10 -12 21 -20 24 -8 3 -23 23 -35 46
-11 22 -24 40 -29 40 -5 0 -16 19 -26 43 -9 23 -27 53 -40 67 -12 14 -26 43
-29 65 -4 22 -18 56 -31 75 -16 23 -28 61 -35 110 -7 49 -18 85 -33 105 l-22
30 -2 605 -3 605 -47 46 c-27 25 -54 48 -62 50 -24 8 -42 125 -29 198 9 53 17
70 48 101 21 21 46 40 57 43 10 3 806 4 1768 3 l1750 -1 43 -43z m2556 -695
c21 -15 44 -27 51 -27 18 0 80 -62 99 -98 9 -18 21 -32 26 -32 31 0 49 -311
20 -361 -47 -79 -78 -119 -103 -130 -15 -6 -44 -25 -64 -40 -35 -28 -38 -29
-162 -29 -137 0 -182 8 -215 40 -11 11 -45 43 -73 70 -29 27 -53 53 -53 58 0
5 -13 26 -30 48 -29 38 -29 42 -30 155 0 103 2 118 20 134 10 9 27 37 36 61 9
24 25 46 34 49 10 3 25 16 34 30 9 13 40 33 73 45 32 12 63 26 70 31 24 21 70
28 148 25 67 -2 86 -7 119 -29z m385 -1289 c18 -16 37 -28 43 -28 21 0 90 -83
125 -148 33 -64 34 -72 35 -173 1 -102 0 -110 -31 -170 -31 -59 -103 -139
-126 -139 -5 0 -23 -11 -39 -25 -36 -31 -89 -39 -226 -33 -107 4 -108 5 -151
41 -23 20 -45 37 -49 37 -3 0 -19 19 -36 41 -16 23 -40 53 -54 68 -25 26 -25
29 -25 186 l0 160 27 30 c39 42 126 130 151 152 32 27 61 32 198 30 121 -2
126 -3 158 -29z"/>
<path d="M10590 12357 c-34 -17 -37 -68 -10 -150 19 -57 21 -97 29 -542 10
-529 11 -543 69 -582 l33 -22 1412 3 c777 2 1421 4 1432 5 11 1 49 -1 85 -5
113 -11 104 -56 110 590 l5 551 33 58 c19 32 32 64 29 71 -14 35 -71 36 -1649
36 -1228 0 -1558 -3 -1578 -13z"/>
<path d="M12037 9355 c-25 -19 -48 -43 -52 -54 -7 -24 -93 -91 -116 -91 -10 0
-31 -11 -47 -25 -17 -14 -45 -30 -62 -37 -44 -15 -140 -72 -170 -101 -14 -14
-40 -27 -59 -31 -18 -3 -49 -19 -68 -36 -18 -16 -38 -30 -44 -30 -26 0 -128
-78 -238 -181 -34 -33 -75 -66 -90 -74 -27 -13 -134 -128 -142 -152 -2 -6 -30
-40 -62 -75 -68 -75 -101 -121 -122 -168 -8 -19 -22 -46 -30 -60 -8 -14 -22
-41 -31 -60 -36 -76 -46 -96 -61 -124 -13 -25 -17 -87 -24 -345 -17 -607 -17
-586 7 -618 19 -24 28 -28 69 -26 35 1 54 8 74 26 14 13 47 30 73 37 26 7 54
20 63 30 12 13 39 21 92 25 57 6 81 13 102 31 20 17 50 27 101 34 42 6 89 20
113 34 23 14 68 29 101 35 32 6 72 19 90 30 17 10 56 26 87 35 31 8 67 24 80
35 13 10 44 22 67 26 24 4 69 20 99 36 30 16 66 29 78 29 30 0 75 17 95 36 8
8 31 25 49 37 19 12 44 38 55 57 21 34 21 51 26 790 l5 755 23 49 c12 27 22
52 22 56 0 11 -63 76 -87 88 -18 10 -28 6 -66 -23z"/>
<path d="M12240 9343 c-20 -26 -22 -35 -15 -108 4 -44 9 -395 11 -780 2 -385
3 -718 4 -741 0 -31 8 -51 36 -87 20 -25 46 -49 58 -53 11 -3 31 -15 42 -26
12 -11 47 -26 79 -34 31 -8 74 -26 94 -39 20 -12 54 -26 76 -30 22 -3 56 -17
75 -30 19 -13 59 -28 88 -34 29 -6 65 -20 80 -31 15 -11 53 -24 84 -30 32 -5
77 -20 100 -34 24 -14 74 -30 113 -36 44 -7 78 -19 91 -31 15 -14 46 -24 100
-31 56 -7 87 -17 106 -33 14 -12 47 -27 72 -34 25 -6 46 -16 46 -21 0 -18 63
-42 111 -43 76 -1 90 18 84 112 -3 42 -10 227 -16 411 -11 369 -19 443 -48
474 -10 12 -23 49 -29 84 -8 47 -19 73 -42 98 -16 19 -30 41 -30 49 0 7 -11
22 -24 32 -13 11 -27 34 -31 52 -4 17 -21 48 -38 67 -226 245 -242 261 -265
268 -10 4 -24 18 -30 31 -6 14 -16 25 -21 25 -6 0 -26 15 -45 33 -58 53 -100
84 -139 103 -20 10 -37 21 -37 26 0 4 -17 17 -37 28 -21 12 -53 32 -72 45 -19
14 -44 25 -57 25 -14 0 -30 10 -40 25 -9 14 -37 32 -65 42 -27 10 -49 21 -49
26 0 4 -28 21 -62 38 -106 51 -131 67 -197 126 -71 64 -110 93 -128 93 -6 0
-21 -12 -33 -27z"/>
<path d="M27 2753 c-19 -3 -27 -10 -27 -24 0 -10 6 -19 14 -19 8 0 21 -17 30
-37 9 -21 20 -45 25 -53 5 -8 23 -42 39 -75 84 -169 337 -504 524 -695 117
-120 152 -151 313 -287 71 -60 106 -90 199 -173 28 -25 89 -71 136 -102 107
-73 257 -174 384 -262 54 -37 108 -72 120 -77 12 -6 39 -21 61 -34 22 -14 58
-34 80 -45 22 -11 58 -31 80 -43 22 -13 67 -38 100 -57 33 -18 94 -51 135 -74
75 -42 141 -74 235 -116 28 -12 68 -30 90 -41 128 -59 213 -97 235 -104 14 -4
32 -13 40 -20 8 -8 29 -17 45 -21 17 -4 46 -15 65 -26 19 -10 43 -18 53 -18
10 0 35 -9 57 -20 22 -11 47 -20 57 -20 10 0 32 -7 48 -16 17 -9 50 -22 75
-30 25 -7 77 -25 115 -40 66 -25 144 -49 245 -75 25 -6 74 -20 110 -30 36 -11
90 -24 120 -29 30 -6 59 -15 64 -20 14 -14 16628 -14 16642 0 5 5 42 16 82 25
40 8 81 19 90 24 9 5 40 12 67 16 28 4 72 16 98 26 26 11 58 19 70 19 12 1 40
9 62 20 22 11 46 19 52 20 7 0 43 12 80 26 38 15 92 35 121 45 117 42 161 58
241 88 46 18 91 36 100 41 9 4 43 20 76 35 33 15 78 35 100 45 22 10 63 29 90
40 106 47 263 120 295 140 46 27 254 142 273 151 12 5 40 21 62 34 22 14 58
34 80 45 22 11 49 25 60 32 49 31 136 89 245 163 65 44 157 107 206 139 80 54
246 184 315 247 67 62 111 100 197 171 88 74 252 235 327 323 129 150 375 493
375 522 0 6 8 21 19 34 10 13 22 35 26 49 4 14 13 32 20 40 7 8 16 26 20 40 4
14 14 33 23 43 12 14 13 20 3 30 -9 9 -2586 12 -12184 13 -6695 1 -12184 -1
-12200 -3z"/>
</g>
</svg>
