<?xml version="1.0" standalone="no"?>
<!DOCTYPE svg PUBLIC "-//W3C//DTD SVG 20010904//EN"
 "http://www.w3.org/TR/2001/REC-SVG-20010904/DTD/svg10.dtd">
<svg version="1.0" xmlns="http://www.w3.org/2000/svg"
 width="28.000000pt" height="28.000000pt" viewBox="0 0 28.000000 28.000000"
 preserveAspectRatio="xMidYMid meet">

<g transform="translate(0.000000,28.000000) scale(0.100000,-0.100000)"
fill="#000000" stroke="none">
<path d="M68 254 c-55 -29 -76 -125 -42 -184 49 -82 179 -82 228 0 35 60 12
156 -44 185 -37 19 -107 19 -142 -1z m148 -38 c48 -48 48 -104 0 -152 -28 -28
-42 -34 -76 -34 -34 0 -48 6 -76 34 -48 48 -48 104 0 152 28 28 42 34 76 34
34 0 48 -6 76 -34z"/>
<path d="M130 181 c0 -26 -4 -31 -25 -31 -14 0 -25 -4 -25 -10 0 -5 11 -10 25
-10 20 0 25 -5 25 -25 0 -14 5 -25 10 -25 6 0 10 11 10 25 0 20 5 25 25 25 14
0 25 5 25 10 0 6 -11 10 -25 10 -20 0 -25 5 -25 24 0 14 -4 28 -10 31 -6 4
-10 -7 -10 -24z"/>
</g>
</svg>
