<?xml version="1.0" encoding="UTF-8" standalone="no" ?>
<!DOCTYPE svg PUBLIC "-//W3C//DTD SVG 1.1//EN"
          "http://www.w3.org/Graphics/SVG/1.1/DTD/svg11.dtd">
<svg version="1.0" xmlns="http://www.w3.org/2000/svg"
     width="1024.000000pt" height="1024.000000pt" viewBox="0 0 1024.000000 1024.000000"
     preserveAspectRatio="xMidYMid meet">
    <g transform="translate(0.000000,1024.000000) scale(0.100000,-0.100000)"
       fill="#000000" stroke="none">
        <path d="M 67.5,7.5 C 68.8333,7.5 70.1667,7.5 71.5,7.5C 71.6567,8.87344 71.49,10.2068 71,11.5C 58.3192,24.014
              45.8192,36.6807 33.5,49.5C 45.8192,62.3193 58.3192,74.986 71,87.5C 71.49,88.7932 71.6567,90.1266 71.5,91.5C 70.1266,91.6567 68.7932,91.49 67.5,91C
              53.5916,77.594 40.2583,63.7606 27.5,49.5C 27.6667,48.8333 27.8333,48.1667 28,47.5C 41.3686,34.2985 54.5353,20.9652 67.5,7.5 Z" />
    </g>
</svg>
