<?xml version="1.0" standalone="no"?>
<!DOCTYPE svg PUBLIC "-//W3C//DTD SVG 20010904//EN"
 "http://www.w3.org/TR/2001/REC-SVG-20010904/DTD/svg10.dtd">
<svg version="1.0" xmlns="http://www.w3.org/2000/svg"
 width="28.000000pt" height="28.000000pt" viewBox="0 0 28.000000 28.000000"
 preserveAspectRatio="xMidYMid meet">

<g transform="translate(0.000000,28.000000) scale(0.100000,-0.100000)"
fill="#000000" stroke="none">
<path d="M102 264 c0 -10 -2 -28 -6 -39 -4 -11 0 -7 9 9 12 19 14 31 6 39 -7
7 -10 4 -9 -9z"/>
<path d="M141 265 c1 -11 -2 -31 -5 -45 -4 -14 -3 -18 0 -10 4 8 10 22 15 31
4 8 4 22 -1 29 -7 12 -9 10 -9 -5z"/>
<path d="M183 262 c-1 -9 -4 -28 -8 -42 -4 -15 0 -12 10 9 8 19 12 38 7 43 -4
4 -8 0 -9 -10z"/>
<path d="M54 128 c11 -81 18 -88 86 -88 37 0 62 5 67 13 4 7 20 18 35 24 36
16 47 57 23 83 -16 17 -31 20 -118 20 l-100 0 7 -52z m196 -3 c0 -14 -6 -25
-14 -25 -9 0 -12 8 -8 25 2 14 8 25 13 25 5 0 9 -11 9 -25z"/>
<path d="M14 15 c28 -21 224 -21 252 0 17 13 4 14 -126 14 -130 0 -143 -1
-126 -14z"/>
</g>
</svg>
