<?xml version="1.0" standalone="no"?>
<!DOCTYPE svg PUBLIC "-//W3C//DTD SVG 20010904//EN"
 "http://www.w3.org/TR/2001/REC-SVG-20010904/DTD/svg10.dtd">
<svg version="1.0" xmlns="http://www.w3.org/2000/svg"
 width="28.000000pt" height="28.000000pt" viewBox="0 0 28.000000 28.000000"
 preserveAspectRatio="xMidYMid meet">

<g transform="translate(0.000000,28.000000) scale(0.100000,-0.100000)"
fill="#000000" stroke="none">
<path d="M130 240 c0 -22 5 -40 10 -40 6 0 10 11 10 25 0 53 82 9 101 -55 25
-83 -58 -166 -141 -141 -75 22 -105 93 -71 164 26 54 26 65 1 42 -26 -24 -44
-80 -36 -118 21 -104 144 -149 225 -81 77 65 58 191 -35 230 -55 23 -64 19
-64 -26z"/>
<path d="M70 201 c0 -13 71 -73 78 -66 6 6 -57 75 -70 75 -4 0 -8 -4 -8 -9z"/>
</g>
</svg>
